<?xml version="1.0" encoding="utf-8"?>
<!-- Generator: Adobe Illustrator 16.0.0, SVG Export Plug-In . SVG Version: 6.00 Build 0)  -->
<!DOCTYPE svg PUBLIC "-//W3C//DTD SVG 1.1//EN" "http://www.w3.org/Graphics/SVG/1.1/DTD/svg11.dtd">
<svg version="1.1" id="Layer_1" xmlns="http://www.w3.org/2000/svg" xmlns:xlink="http://www.w3.org/1999/xlink" x="0px" y="0px"
	 width="640px" height="640px" viewBox="0 0 640 640" enable-background="new 0 0 640 640" xml:space="preserve">
<g>
	<polygon fill-rule="evenodd" clip-rule="evenodd" fill="none" stroke="#FFFFFF" stroke-width="9" stroke-miterlimit="10" points="
		309.5,101.5 309.5,18.5 102.575,18.5 18.5,18.5 18.5,101.599 18.5,226 18.5,308.5 102.575,308.5 226.976,308.5 309.5,308.5 
		309.5,226 309.5,123.5 307.146,123.5 226.976,123.5 124.5,123.5 124.5,206.5 227.5,206.5 227.5,226.5 102.5,226.5 102.5,101.5 	"/>
	
		<rect x="333.5" y="332.5" fill-rule="evenodd" clip-rule="evenodd" fill="none" stroke="#FFFFFF" stroke-width="9" stroke-miterlimit="10" width="288" height="82"/>
	
		<rect x="333.5" y="435.5" fill-rule="evenodd" clip-rule="evenodd" fill="none" stroke="#FFFFFF" stroke-width="9" stroke-miterlimit="10" width="288" height="84"/>
	<polygon fill-rule="evenodd" clip-rule="evenodd" fill="none" stroke="#FFFFFF" stroke-width="9" stroke-miterlimit="10" points="
		415.5,226.5 415.5,18.5 333.5,18.5 333.5,226 333.5,308.5 414.96,308.5 621.5,308.5 621.5,226.5 	"/>
	
		<rect x="333.5" y="538.5" fill-rule="evenodd" clip-rule="evenodd" fill="none" stroke="#FFFFFF" stroke-width="9" stroke-miterlimit="10" width="288" height="84"/>
	
		<rect x="18.5" y="332.5" fill-rule="evenodd" clip-rule="evenodd" fill="none" stroke="#FFFFFF" stroke-width="9" stroke-miterlimit="10" width="291" height="290"/>
</g>
</svg>
